# xmcd CD database file
#
# Track frame offsets:
#	183
#	17538
#	34650
#	49153
#	63628
#	78655
#	94845
#	113975
#	127820
#	141713
#	156283
#	173133
#	191338
#	205115
#	222978
#	234403
#	249308
#	266958
#
# Disc length: 3742 seconds
#
# Revision: 1
# Processed by: cddbd v1.5.1PL0 Copyright (c) Steve Scherf et al.
# Submitted via: CDex 1.51
#
DISCID=040e9c12
DTITLE=Various Artist - Gefühle - Vol.5 - Die schönsten romantischen Schlager
DYEAR=1900
DGENRE=Oldies
TTITLE0=Bernd Clüver - Der kleine Prinz
TTITLE1=Vicky Leandros - Lago Maggiore im Schnee
TTITLE2=Ulli Martin - Du bist das allerschönste Mädchen
TTITLE3=Mary Roos - Nur die Liebe läßt uns leben
TTITLE4=Bata Illic - Schwarze Madonna
TTITLE5=Regina Palm - I'm Sorry
TTITLE6=Sylvia Vrethammer - So wie es gestern war
TTITLE7=Christian Anders - Einsamkeit hat viele Namen
TTITLE8=Elfi Graf - Herzen haben keine Fenster
TTITLE9=Udo Jürgens - Wie nennt man das Gefühl
TTITLE10=Marion Maerz - In Griechenland
TTITLE11=Michael Holm - Baby, du bist nicht allein
TTITLE12=Ireen Sheer - Goodbye Mama
TTITLE13=Demis Roussos - Goodbye My Love Goodbye
TTITLE14=Freddy Brec - Bianca
TTITLE15=Su Kramer - Kinder der Liebe
TTITLE16=Daliah Lavi - Wär ich ein Buch
TTITLE17=Jerry Rix - Ich will mehr als nur dein Freund sein
EXTD=
EXTT0=
EXTT1=
EXTT2=
EXTT3=
EXTT4=
EXTT5=
EXTT6=
EXTT7=
EXTT8=
EXTT9=
EXTT10=
EXTT11=
EXTT12=
EXTT13=
EXTT14=
EXTT15=
EXTT16=
EXTT17=
PLAYORDER=
